<?xml version="1.0" encoding="utf-8"?>
<!-- Generator: Adobe Illustrator 16.0.0, SVG Export Plug-In . SVG Version: 6.00 Build 0)  -->
<!DOCTYPE svg PUBLIC "-//W3C//DTD SVG 1.1//EN" "http://www.w3.org/Graphics/SVG/1.1/DTD/svg11.dtd">
<svg version="1.1" id="Layer_1" xmlns="http://www.w3.org/2000/svg" xmlns:xlink="http://www.w3.org/1999/xlink" x="0px" y="0px"
	 width="40px" height="40px" viewBox="0 0 40 40" enable-background="new 0 0 40 40" xml:space="preserve">
<path fill-rule="evenodd" clip-rule="evenodd" fill="#EC6124" d="M21.307,31.805c-0.289,0.253-0.419,1.221-0.718,1.783
	c-0.86,1.623-1.527,3.434-2.72,4.771c-1.377,1.544-2.638,1.021-3.194-0.96c-0.146-0.524-0.452-1.734-0.671-1.691
	c-0.22,0.042-1.965,1.509-2.962,2.005c-0.426,0.211-1.438,0.091-1.617-0.213c-0.49-0.825-1.062-0.718-1.825-0.707
	c-0.826,0.012-2.208-0.085-2.366-0.504c-0.289-0.769-0.073-1.917,0.324-2.709c0.58-1.153,0.981-1.969-0.48-2.753
	c-1.073-0.576-0.771-1.487-0.074-2.201c0.888-0.909,2.881-2.424,2.928-2.733c0.048-0.309-1.143-0.292-1.593-0.487
	c-1.979-0.86-2.205-2.584-0.394-3.795c1.051-0.702,2.295-1.132,3.485-1.6c1.128-0.442,3.659-0.971,3.795-1.268
	c0.136-0.296-2.116-1.313-2.817-2.021c-0.493-0.499-1.057-1.41-0.906-1.943c0.187-0.651,1.002-1.326,1.695-1.582
	c0.895-0.329,1.937-0.315,2.917-0.34c1.974-0.05,3.95,0.003,5.923-0.059c0.404-0.013,1.066-0.18,1.2-0.529
	c0.133-0.349-0.29-0.738-0.515-1.05c-0.646-0.897-1.954-1.854-1.078-2.892c0.533-0.632,2.068-0.633,3.127-0.554
	c1.315,0.098,3.833,1.064,4.044,0.915c0.21-0.15-0.129-0.646-0.208-0.959C26.383,6.841,26.66,6.3,27.55,5.903
	c1.455-0.648,2.775-1.672,4.278-2.121c1.629-0.486,2.76-1.307,3.29-3.017c0.109-0.104,0.49,0.136,0.508,0.316
	c0.018,0.179-0.336,0.981-0.624,1.386c-0.751,1.054-0.958,2.656-0.77,3.446c0.33,1.383,0.099,2.895,0.102,4.35
	c0.003,1.188,0.043,2.38-0.043,3.562c-0.052,0.723-0.352,2.399-0.545,2.452c-0.301,0.081-1.184-1.083-1.621-1.483
	c-0.142-0.143-0.546-0.298-0.456,0.116c0.197,1.165,0.584,2.318,1.025,3.418c0.646,1.61,1.241,3.172,0.632,4.945
	c-0.693,2.02-1.405,2.251-3.098,0.913c-1.517-1.201-1.96-1.066-2.223,0.82c-0.242,1.742-0.177,3.542-0.567,5.242
	c-0.303,1.318-0.96,2.616-1.717,3.752c-0.961,1.444-1.975,1.3-2.826-0.208c-0.373-0.663-0.724-1.339-1.084-2.009
	C21.784,31.617,21.596,31.551,21.307,31.805z"/>
</svg>
