<?xml version="1.0" encoding="utf-8"?>
<!-- Generator: Adobe Illustrator 16.0.0, SVG Export Plug-In . SVG Version: 6.00 Build 0)  -->
<!DOCTYPE svg PUBLIC "-//W3C//DTD SVG 1.1//EN" "http://www.w3.org/Graphics/SVG/1.1/DTD/svg11.dtd">
<svg version="1.1" id="Layer_1" xmlns="http://www.w3.org/2000/svg" xmlns:xlink="http://www.w3.org/1999/xlink" x="0px" y="0px"
	 width="40px" height="40px" viewBox="0 0 40 40" enable-background="new 0 0 40 40" xml:space="preserve">
<path fill-rule="evenodd" clip-rule="evenodd" fill="#FEC12A" d="M16.086,37.871c-0.843-2.892-0.363-6.909-2.989-9.165
	c0.588-0.922-3.608,4.562-3.936,10.051c-1.175,0.121-1.914-0.085-1.602-1.564c0.688-3.249,2.052-6.163,4.475-8.94
	c-2.244,0-4.176,0-6.028,0c0.295-1.219,0.771-2.437,0.81-3.667c0.019-0.588-0.665-1.409-1.249-1.763
	c-1.215-0.735-2.576-1.23-4.048-1.901c1.597-0.453,2.084-1.445,1.307-2.764c-0.63-1.067-1.487-2.001-2.024-2.708
	c1.158-0.41,2.447-0.986,3.797-1.295c0.701-0.16,1.508,0.208,2.271,0.242c1.769,0.08,2.321-0.385,2-2.139
	c-0.312-1.7-1-3.33-1.523-4.991c2.345,0.646,2.791,0.435,3.753-1.778c0.107-0.247,0.19-0.669,0.35-0.705
	c1.968-0.426,1.505-2.183,1.979-3.57c1.172,0.95,1.139,3.265,3.4,3.043c0.431,1.605,0.869,5.408,1.469,5.478
	c0.985,0.348,1.797-2.635,2.459-3.606c3.247,1.391,4.067-1.878,5.98-2.9c0.955,1.45,0.955,1.45,4.114-0.754
	c0.232,1.041-1.519,2.709,0.96,3.008c-1.272,2.648-1.25,2.727,0.988,3.6c-0.964,1.83-3.728,3.068-2.038,5.888
	c-0.825,0.895-2.971,3.303-2.369,3.493c0.602,0.189,4.623-0.457,6.929-0.684c-0.069,1.115-0.069,1.115,3.877,2.677
	c-1.464,0.542-3.324,0.737-2.37,2.968c-2.847,1.351-3.146,2.271-1.735,5.489c-0.876-0.078-1.708-0.201-2.542-0.218
	c-2.399-0.05-3.208,0.667-2.901,3.071c0.263,2.053,0.944,4.053,1.453,6.131c-2.16-0.525-4.486-2.775-6.391,0.432
	C20.064,33.144,19.591,33.115,16.086,37.871z"/>
</svg>
