<?xml version="1.0" encoding="utf-8"?>
<!-- Generator: Adobe Illustrator 16.0.0, SVG Export Plug-In . SVG Version: 6.00 Build 0)  -->
<!DOCTYPE svg PUBLIC "-//W3C//DTD SVG 1.1//EN" "http://www.w3.org/Graphics/SVG/1.1/DTD/svg11.dtd">
<svg version="1.1" id="Layer_1" xmlns="http://www.w3.org/2000/svg" xmlns:xlink="http://www.w3.org/1999/xlink" x="0px" y="0px"
	 width="80px" height="50px" viewBox="0 0 80 50" enable-background="new 0 0 80 50" xml:space="preserve">
<path fill-rule="evenodd" clip-rule="evenodd" fill="#E39626" d="M35.413,25.046c0.861-0.587,1.717-0.6,2.586,0.006
	c0.138,0.097,0.41,0.092,0.583,0.026c0.429-0.16,0.837-0.38,1.312-0.604c-0.023-0.772-0.102-1.581-0.055-2.386
	c0.036-0.605,0.121-1.252,0.377-1.79c0.478-1.014,1.081-1.97,1.662-2.931c0.18-0.298,0.288-0.536-0.006-0.81
	c-0.062-0.056-0.086-0.151-0.129-0.229c-0.696-1.182-1.519-2.278-1.327-3.82c0.123-0.993-0.047-2.029-0.142-3.04
	C40.171,8.4,40.702,7.603,41.318,6.84c0.096-0.115,0.36-0.095,0.545-0.136c-0.006,0.176,0.06,0.408-0.029,0.52
	c-0.749,0.952-0.968,2.068-1.011,3.227c-0.024,0.638,0.054,1.279,0.097,1.919c0.006,0.126,0.018,0.307,0.099,0.37
	c1.279,0.992,1.315,2.575,1.871,3.91c0.482,1.155,0.079,2.194-0.481,3.199c-0.408,0.732-0.76,1.508-1.256,2.175
	c-0.521,0.7-0.585,1.434-0.529,1.919c1.305,0.092,2.578,0.224,3.854,0.243c0.372,0.005,0.73-0.377,1.12-0.476
	c1.083-0.278,1.597-1.123,2.163-1.963c1.053-1.564,2.57-2.677,4.208-3.458c2.167-1.03,4.121-2.44,6.328-3.38
	c0.19-0.081,0.333-0.319,0.457-0.511c1.253-1.947,2.489-3.904,3.756-5.842c0.127-0.194,0.41-0.287,0.62-0.426
	c-0.042,0.249-0.017,0.542-0.141,0.743c-1.156,1.878-2.349,3.734-3.504,5.613c-0.158,0.258-0.109,0.64-0.26,0.906
	c-0.18,0.318-0.416,0.695-0.724,0.837c-1.602,0.739-3.234,1.41-4.793,2.165c-0.277,0.243-0.539,0.507-0.836,0.726
	c-0.582,0.427-1.238,0.772-1.769,1.257c-0.894,0.815-1.713,1.711-2.581,2.594c0.192,0.016,0.444,0.033,0.695,0.059
	c1.403,0.14,2.47,0.816,3.316,1.946c0.241,0.322,0.742,0.448,1.126,0.664c0.058-0.066,0.116-0.13,0.175-0.195
	c-0.067-0.218-0.111-0.445-0.201-0.654c-0.928-2.183,0.928-3.622,2.694-3.422c1.718,0.193,3.388,0.602,4.916,1.465
	c0.152,0.087,0.309,0.165,0.594,0.316c0.269-0.596,0.584-1.146,0.766-1.736c0.42-1.349,0.838-2.704,1.137-4.083
	c0.273-1.258,1.075-1.962,2.153-2.453c1.185-0.538,2.369-1.084,3.581-1.556c1.905-0.743,3.423-1.985,4.742-3.507
	c0.188-0.217,0.349-0.473,0.576-0.637c0.144-0.104,0.449-0.155,0.572-0.07c0.114,0.08,0.098,0.368,0.106,0.567
	c0.003,0.071-0.075,0.158-0.136,0.22c-1.255,1.308-2.497,2.634-4.19,3.397c-1.63,0.733-3.263,1.456-4.901,2.167
	c-0.382,0.166-0.587,0.364-0.71,0.817c-0.194,0.713-0.617,1.362-0.897,2.055c-0.495,1.227-0.935,2.475-1.435,3.699
	c-0.214,0.523-0.516,1.009-0.812,1.575c0.211,0.274,0.519,0.593,0.733,0.968c0.768,1.341,0.853,2.731,0.098,4.101
	c-0.215,0.39-0.153,0.642,0.027,1.005c0.802,1.594,1.593,3.196,2.318,4.828c0.315,0.712,0.463,1.497,0.704,2.304
	c1.91,0.207,3.878,0.629,5.672,1.576c0.781,0.413,1.448,1.054,2.134,1.63c0.101,0.084,0.026,0.379,0.031,0.575
	c-0.176-0.046-0.402-0.042-0.519-0.152c-1.857-1.762-4.138-2.602-6.61-2.926c-2.42-0.315-2.234-0.422-2.623-2.518
	c-0.319-1.719-0.71-3.421-1.708-4.904c-0.068-0.106-0.164-0.194-0.263-0.309c-1.846,1.431-3.991,1.849-6.224,2.006
	c-2.147,0.151-3.28-1.846-2.499-3.282c0.098-0.179,0.033-0.443,0.044-0.653c-0.706-0.146-1.105,0.084-1.49,0.604
	c-0.763,1.025-1.917,1.426-3.288,1.664c1.393,1.155,2.432,2.517,4.011,3.256c0.272,0.128,0.444,0.455,0.683,0.67
	c0.136,0.117,0.303,0.218,0.472,0.286c1.492,0.603,2.994,1.186,4.483,1.798c0.481,0.196,0.891,0.445,0.78,1.128
	c-0.041,0.251,0.201,0.572,0.367,0.826c1.152,1.777,2.318,3.543,3.481,5.313c0.024,0.037,0.076,0.066,0.081,0.104
	c0.032,0.233,0.056,0.468,0.083,0.702c-0.189-0.104-0.445-0.16-0.562-0.314c-0.754-1.034-1.481-2.089-2.213-3.139
	c-0.164-0.235-0.339-0.471-0.451-0.729c-0.769-1.757-2.088-2.884-3.846-3.615c-0.907-0.376-1.671-1.129-2.591-1.442
	c-0.892-0.302-1.688-0.712-2.465-1.201c-1.49-0.931-2.759-2.064-3.899-3.431c-0.636-0.758-1.812-1.275-2.824-1.452
	c-1.225-0.215-2.534,0.045-3.859,0.104c-0.07,0.439,0.009,0.914,0.356,1.409c0.558,0.792,0.989,1.669,1.505,2.49
	c0.7,1.118,0.843,2.281,0.388,3.522c-0.312,0.851-0.6,1.706-0.905,2.559c-0.052,0.145-0.094,0.318-0.199,0.413
	c-1.308,1.195-0.773,2.687-0.576,4.063c0.103,0.705,0.597,1.352,0.885,2.034c0.063,0.148,0.015,0.345,0.017,0.521
	c-0.177-0.033-0.438-0.001-0.517-0.106c-0.583-0.773-1.194-1.533-1.108-2.611c0.076-0.924,0.043-1.856,0.119-2.781
	c0.071-0.853-0.248-1.734,0.333-2.556c0.49-0.698,0.846-1.493,1.283-2.285c-1.521-2.062-2.926-4.203-2.271-6.948
	c-0.596-0.26-1.057-0.462-1.532-0.672c-1.518,0.969-1.759,0.992-3.183,0.298c-1.836,3.1-4.521,5.32-7.523,7.202
	c-0.603,0.375-1.183,0.769-2.008,0.691c-0.496-0.045-1.016,0.399-1.545,0.473c-1.753,0.235-3.509,0.439-5.271,0.579
	c-0.849,0.064-1.713-0.042-2.57-0.065c-0.106-0.006-0.219-0.012-0.318,0.017c-2.891,0.812-5.78,1.623-8.668,2.438
	c-1.036,0.292-1.915,0.78-2.407,1.809c-0.054,0.113-0.308,0.134-0.468,0.196c-0.02-0.172-0.12-0.395-0.048-0.503
	c0.54-0.812,1.118-1.572,2.15-1.849c2.729-0.733,5.491-1.383,8.162-2.288c2.329-0.793,4.743-0.553,7.092-0.969
	c0.78-0.14,1.561-0.311,2.348-0.395c1.787-0.191,3.003-1.379,4.319-2.396c0.175-0.136,0.345-0.276,0.663-0.534
	c-0.548,0.105-0.932,0.185-1.314,0.257c-3.76,0.709-7.408,0.481-10.762-1.519c-0.865-0.517-1.659-1.27-2.264-2.081
	c-1.228-1.645-1.047-3.688,0.296-5.243c1.31-1.525,2.998-2.442,4.914-2.954c3.507-0.937,6.98-0.917,10.503,0.463
	c-0.748-0.737-1.374-1.458-2.106-2.051c-0.937-0.76-1.901-1.518-2.958-2.084c-0.613-0.329-1.426-0.321-2.154-0.39
	c-2.179-0.205-4.36-0.353-6.536-0.568c-0.568-0.055-1.123-0.269-1.682-0.415c-2.865-0.74-5.724-1.501-8.595-2.214
	c-1.057-0.263-1.691-0.988-2.251-1.823c-0.08-0.118-0.01-0.337-0.01-0.511c0.176,0.064,0.449,0.08,0.513,0.202
	c0.467,0.919,1.239,1.41,2.198,1.666c2.985,0.797,5.968,1.601,8.96,2.375c0.253,0.065,0.562-0.113,0.838-0.093
	c2.684,0.198,5.39,0.254,8.04,0.664c3.474,0.537,5.923,2.908,8.308,5.259C34.07,22.636,34.997,23.66,35.413,25.046z M34.859,25.564
	l-0.046,0.011l0.026,0.032L34.859,25.564z"/>
</svg>
