<?xml version="1.0" encoding="utf-8"?>
<!-- Generator: Adobe Illustrator 16.0.0, SVG Export Plug-In . SVG Version: 6.00 Build 0)  -->
<!DOCTYPE svg PUBLIC "-//W3C//DTD SVG 1.1//EN" "http://www.w3.org/Graphics/SVG/1.1/DTD/svg11.dtd">
<svg version="1.1" id="Layer_1" xmlns="http://www.w3.org/2000/svg" xmlns:xlink="http://www.w3.org/1999/xlink" x="0px" y="0px"
	 width="80px" height="50px" viewBox="0 0 80 50" enable-background="new 0 0 80 50" xml:space="preserve">
<path fill="#BA0808" d="M35.413,25.046c0.861-0.587,1.717-0.6,2.586,0.006c0.138,0.097,0.41,0.092,0.583,0.026
	c0.429-0.16,0.837-0.38,1.312-0.604c-0.023-0.772-0.102-1.581-0.055-2.386c0.036-0.605,0.121-1.252,0.377-1.79
	c0.478-1.014,1.081-1.97,1.662-2.931c0.181-0.298,0.288-0.536-0.006-0.81c-0.062-0.056-0.086-0.151-0.129-0.229
	c-0.696-1.182-1.519-2.278-1.327-3.82c0.123-0.993-0.047-2.029-0.142-3.04C40.171,8.4,40.702,7.603,41.318,6.84
	c0.096-0.115,0.359-0.095,0.545-0.136c-0.006,0.176,0.06,0.408-0.029,0.52c-0.749,0.952-0.968,2.068-1.011,3.227
	c-0.024,0.638,0.054,1.279,0.097,1.919c0.006,0.126,0.018,0.307,0.1,0.37c1.278,0.992,1.314,2.575,1.871,3.91
	c0.481,1.155,0.078,2.194-0.481,3.199c-0.408,0.732-0.761,1.508-1.257,2.175c-0.521,0.7-0.584,1.434-0.528,1.919
	c1.306,0.092,2.578,0.224,3.854,0.243c0.371,0.005,0.729-0.377,1.119-0.476c1.084-0.278,1.598-1.123,2.164-1.963
	c1.053-1.564,2.569-2.677,4.207-3.458c2.168-1.03,4.121-2.44,6.328-3.38c0.189-0.081,0.333-0.319,0.457-0.511
	c1.253-1.947,2.489-3.904,3.756-5.842c0.127-0.194,0.41-0.287,0.62-0.426c-0.042,0.249-0.017,0.542-0.142,0.743
	c-1.155,1.878-2.348,3.734-3.504,5.613c-0.157,0.258-0.108,0.64-0.26,0.906c-0.18,0.318-0.416,0.695-0.724,0.837
	c-1.603,0.739-3.233,1.41-4.793,2.165c-0.276,0.243-0.539,0.507-0.836,0.726c-0.582,0.427-1.238,0.772-1.769,1.257
	c-0.895,0.815-1.713,1.711-2.582,2.594c0.192,0.016,0.444,0.033,0.695,0.059c1.403,0.14,2.471,0.816,3.316,1.946
	c0.24,0.322,0.742,0.448,1.126,0.665c0.058-0.066,0.116-0.131,0.175-0.196c-0.066-0.218-0.111-0.445-0.201-0.654
	c-0.928-2.183,0.928-3.622,2.694-3.422c1.718,0.193,3.388,0.602,4.916,1.465c0.151,0.087,0.309,0.165,0.594,0.316
	c0.269-0.596,0.584-1.146,0.767-1.736c0.42-1.349,0.838-2.704,1.137-4.083c0.273-1.258,1.074-1.962,2.152-2.453
	c1.186-0.538,2.369-1.084,3.582-1.556c1.904-0.743,3.422-1.985,4.741-3.507c0.188-0.217,0.349-0.473,0.576-0.637
	c0.144-0.104,0.449-0.155,0.571-0.07c0.115,0.08,0.099,0.368,0.107,0.567c0.002,0.071-0.076,0.158-0.137,0.22
	c-1.255,1.308-2.497,2.634-4.189,3.397c-1.631,0.733-3.264,1.456-4.901,2.167c-0.382,0.166-0.587,0.364-0.71,0.817
	c-0.194,0.713-0.617,1.362-0.897,2.055c-0.495,1.227-0.935,2.475-1.435,3.699c-0.215,0.522-0.516,1.009-0.812,1.575
	c0.211,0.274,0.52,0.593,0.733,0.968c0.769,1.341,0.853,2.731,0.099,4.101c-0.216,0.391-0.154,0.643,0.026,1.006
	c0.802,1.594,1.593,3.195,2.317,4.827c0.315,0.712,0.463,1.497,0.705,2.304c1.91,0.207,3.877,0.629,5.672,1.576
	c0.781,0.413,1.447,1.055,2.134,1.631c0.101,0.084,0.026,0.379,0.03,0.574c-0.176-0.046-0.401-0.042-0.519-0.152
	c-1.856-1.762-4.138-2.602-6.61-2.926c-2.42-0.314-2.233-0.422-2.623-2.518c-0.318-1.719-0.709-3.421-1.707-4.904
	c-0.068-0.105-0.164-0.193-0.264-0.309c-1.846,1.431-3.99,1.849-6.224,2.006c-2.147,0.15-3.28-1.846-2.499-3.282
	c0.098-0.179,0.033-0.442,0.044-0.653c-0.706-0.146-1.104,0.084-1.49,0.604c-0.763,1.024-1.917,1.426-3.288,1.664
	c1.393,1.155,2.432,2.517,4.012,3.256c0.271,0.128,0.443,0.455,0.683,0.67c0.136,0.117,0.303,0.218,0.472,0.286
	c1.492,0.604,2.994,1.186,4.483,1.798c0.481,0.196,0.891,0.445,0.78,1.128c-0.041,0.251,0.201,0.572,0.367,0.826
	c1.151,1.777,2.317,3.543,3.48,5.312c0.023,0.037,0.076,0.066,0.081,0.104c0.032,0.233,0.056,0.468,0.083,0.702
	c-0.189-0.104-0.445-0.16-0.562-0.314c-0.754-1.033-1.48-2.089-2.213-3.139c-0.164-0.234-0.339-0.471-0.451-0.729
	c-0.769-1.758-2.088-2.885-3.846-3.615c-0.906-0.376-1.671-1.129-2.591-1.442c-0.892-0.302-1.688-0.712-2.466-1.2
	c-1.489-0.932-2.758-2.064-3.898-3.432c-0.636-0.758-1.812-1.275-2.824-1.452c-1.225-0.215-2.533,0.045-3.858,0.104
	c-0.07,0.438,0.009,0.914,0.356,1.408c0.557,0.793,0.988,1.67,1.504,2.49c0.7,1.118,0.844,2.281,0.389,3.522
	c-0.312,0.851-0.6,1.706-0.905,2.559c-0.052,0.146-0.094,0.318-0.199,0.413c-1.308,1.195-0.772,2.688-0.575,4.062
	c0.103,0.705,0.596,1.353,0.885,2.035c0.062,0.147,0.015,0.344,0.017,0.521c-0.177-0.033-0.438-0.001-0.517-0.106
	c-0.584-0.772-1.194-1.533-1.108-2.611c0.076-0.924,0.043-1.855,0.119-2.78c0.071-0.853-0.248-1.733,0.333-2.556
	c0.49-0.698,0.846-1.493,1.283-2.285c-1.521-2.062-2.926-4.203-2.271-6.948c-0.596-0.26-1.057-0.462-1.532-0.672
	c-1.518,0.969-1.759,0.991-3.183,0.298c-1.836,3.1-4.521,5.32-7.523,7.202c-0.603,0.375-1.183,0.769-2.008,0.69
	c-0.496-0.045-1.016,0.399-1.545,0.474c-1.753,0.235-3.509,0.438-5.271,0.579c-0.849,0.063-1.713-0.042-2.57-0.065
	c-0.106-0.006-0.219-0.012-0.318,0.017c-2.891,0.812-5.78,1.623-8.668,2.438c-1.036,0.292-1.915,0.78-2.407,1.81
	c-0.054,0.112-0.308,0.134-0.468,0.195c-0.02-0.172-0.12-0.395-0.048-0.503c0.54-0.812,1.118-1.571,2.15-1.849
	c2.729-0.733,5.491-1.383,8.162-2.288c2.329-0.793,4.743-0.554,7.092-0.97c0.78-0.14,1.561-0.311,2.348-0.395
	c1.787-0.191,3.003-1.379,4.319-2.396c0.175-0.135,0.345-0.275,0.663-0.533c-0.548,0.105-0.932,0.185-1.314,0.257
	c-3.76,0.709-7.408,0.481-10.762-1.519c-0.865-0.518-1.659-1.271-2.264-2.082c-1.228-1.645-1.047-3.688,0.296-5.242
	c1.31-1.525,2.998-2.442,4.914-2.954c3.507-0.937,6.98-0.917,10.503,0.463c-0.748-0.737-1.374-1.458-2.106-2.051
	c-0.937-0.76-1.901-1.518-2.958-2.084c-0.613-0.329-1.426-0.321-2.154-0.39c-2.179-0.205-4.36-0.353-6.536-0.568
	c-0.568-0.055-1.123-0.27-1.682-0.415c-2.865-0.74-5.724-1.501-8.595-2.214c-1.057-0.263-1.691-0.988-2.251-1.823
	c-0.08-0.118-0.01-0.337-0.01-0.511c0.176,0.064,0.449,0.08,0.513,0.202c0.467,0.919,1.239,1.41,2.198,1.666
	c2.985,0.797,5.968,1.601,8.96,2.375c0.253,0.065,0.562-0.113,0.838-0.093c2.684,0.198,5.39,0.254,8.04,0.664
	c3.474,0.537,5.923,2.908,8.308,5.259C34.07,22.636,34.997,23.66,35.413,25.046z M34.859,25.564l-0.046,0.011l0.026,0.032
	L34.859,25.564z"/>
</svg>
