<?xml version="1.0" encoding="utf-8"?>
<!-- Generator: Adobe Illustrator 16.0.0, SVG Export Plug-In . SVG Version: 6.00 Build 0)  -->
<!DOCTYPE svg PUBLIC "-//W3C//DTD SVG 1.1//EN" "http://www.w3.org/Graphics/SVG/1.1/DTD/svg11.dtd">
<svg version="1.1" id="Layer_1" xmlns="http://www.w3.org/2000/svg" xmlns:xlink="http://www.w3.org/1999/xlink" x="0px" y="0px"
	 width="50px" height="50px" viewBox="0 0 50 50" enable-background="new 0 0 50 50" xml:space="preserve">
<g id="XMLID_317_">
	<path id="XMLID_1_" fill="#BE1E2D" d="M47.127,29.991c-2.024,9.294-7.576,19.935-14.538,19.935c-2.959,0-4.367-1.966-6.688-1.966
		c-2.321,0-4.748,2.04-7.257,2.04C10.51,50,4.998,39.819,2.885,30.49c-1.526-6.738,1.559-14.78,7.853-16.282
		c6.348-1.514,15.164,1.346,15.164,1.346s8.113-4.321,14.017-1.292C46.027,17.397,48.511,23.64,47.127,29.991z"/>
	<path id="XMLID_420_" fill="#6B594D" d="M25.901,15.555c0,0,0.137-0.064,0.386-0.172l0.785-8.652
		c0.047-0.514-0.366-0.956-0.894-0.956h-0.92c-0.503,0-0.912,0.4-0.912,0.894v8.442C25.318,15.366,25.901,15.555,25.901,15.555z"/>
	<path id="XMLID_131_" fill="#39B54A" d="M33.186,7.562c2.09-2.046,2.967-4.83,2.635-7.496c-2.723-0.325-5.564,0.534-7.654,2.581
		c-2.09,2.046-2.966,4.83-2.635,7.496C28.254,10.468,31.096,9.609,33.186,7.562z"/>
</g>
</svg>
