<?xml version="1.0" encoding="utf-8"?>
<!-- Generator: Adobe Illustrator 16.0.0, SVG Export Plug-In . SVG Version: 6.00 Build 0)  -->
<!DOCTYPE svg PUBLIC "-//W3C//DTD SVG 1.1//EN" "http://www.w3.org/Graphics/SVG/1.1/DTD/svg11.dtd">
<svg version="1.1" id="Layer_1" xmlns="http://www.w3.org/2000/svg" xmlns:xlink="http://www.w3.org/1999/xlink" x="0px" y="0px"
	 width="50px" height="50px" viewBox="0 0 50 50" enable-background="new 0 0 50 50" xml:space="preserve">
<g id="XMLID_111_">
	<path id="XMLID_435_" fill="#FED318" d="M44.412,28.657c0.12,0.124,2.767-2.56,3.695-3.508c0.183-0.187,0.468-0.199,0.664-0.029
		c0.275,0.237,0.686,0.626,1.021,0.946c0.294,0.283,0.272,0.777-0.046,1.029c-1.32,1.05-4.324,3.471-4.287,3.758
		c0.766,5.877-9.855,17.046-20.574,18.849C12.653,51.758-1.397,42.753,0.112,36.104c0.747-3.289,10.666,3.297,22.899,1.241
		C40.398,34.422,41.831,25.989,44.412,28.657z"/>
</g>
</svg>
