<?xml version="1.0" encoding="utf-8"?>
<!-- Generator: Adobe Illustrator 16.0.0, SVG Export Plug-In . SVG Version: 6.00 Build 0)  -->
<!DOCTYPE svg PUBLIC "-//W3C//DTD SVG 1.1//EN" "http://www.w3.org/Graphics/SVG/1.1/DTD/svg11.dtd">
<svg version="1.1" id="Layer_1" xmlns="http://www.w3.org/2000/svg" xmlns:xlink="http://www.w3.org/1999/xlink" x="0px" y="0px"
	 width="50px" height="50px" viewBox="0 0 50 50" enable-background="new 0 0 50 50" xml:space="preserve">
<g id="XMLID_199_">
	<path id="XMLID_165_" fill="#39B54A" d="M22.5,0c1.439,5.233,2.391,12.245,3.089,20.175h-2.436
		c-0.374-5.804-2.032-9.79-4.548-18.717L22.5,0z"/>
	<path id="XMLID_200_" fill="#39B54A" d="M26.899,0c-1.44,5.233-2.391,12.245-3.09,20.175h2.436
		c0.374-5.804,2.031-9.79,4.548-18.717L26.899,0z"/>
	<path id="XMLID_119_" fill="#F7941E" d="M35,23.857C35,30.791,30.522,50,25,50c-5.523,0-10-19.209-10-26.143s4.477-4.78,10-4.78
		C30.522,19.077,35,16.923,35,23.857z"/>
</g>
</svg>
