<?xml version="1.0" encoding="utf-8"?>
<!-- Generator: Adobe Illustrator 16.0.0, SVG Export Plug-In . SVG Version: 6.00 Build 0)  -->
<!DOCTYPE svg PUBLIC "-//W3C//DTD SVG 1.1//EN" "http://www.w3.org/Graphics/SVG/1.1/DTD/svg11.dtd">
<svg version="1.1" id="Layer_1" xmlns="http://www.w3.org/2000/svg" xmlns:xlink="http://www.w3.org/1999/xlink" x="0px" y="0px"
	 width="50px" height="50px" viewBox="0 0 50 50" enable-background="new 0 0 50 50" xml:space="preserve">
<g id="XMLID_345_">
	<g id="XMLID_30_">
		<path id="XMLID_39_" fill="#BE1E2D" d="M34.834,40.398c-0.899,4.46-3.367,9.566-6.461,9.566c-1.315,0-1.941-0.943-2.973-0.943
			c-1.032,0-2.11,0.979-3.225,0.979c-3.616,0-6.065-4.885-7.004-9.361c-0.678-3.233,0.693-7.093,3.49-7.812
			c2.821-0.727,6.739,0.646,6.739,0.646s3.605-2.073,6.229-0.62C34.345,34.355,35.449,37.352,34.834,40.398z"/>
		<path id="XMLID_33_" fill="#6B594D" d="M25.4,33.472c0,0,0.173-0.1,0.471-0.239c-0.46-12.839,0.237-24.021,3.062-32.161
			C29.114,0.551,28.75,0,28.226,0h-0.103c-0.37,0-0.701,0.246-0.822,0.616c-2.33,7.099-3.073,18.308-2.613,32.637
			C25.133,33.378,25.4,33.472,25.4,33.472z"/>
	</g>
</g>
</svg>
