<?xml version="1.0" encoding="utf-8"?>
<!-- Generator: Adobe Illustrator 16.0.0, SVG Export Plug-In . SVG Version: 6.00 Build 0)  -->
<!DOCTYPE svg PUBLIC "-//W3C//DTD SVG 1.1//EN" "http://www.w3.org/Graphics/SVG/1.1/DTD/svg11.dtd">
<svg version="1.1" id="Layer_1" xmlns="http://www.w3.org/2000/svg" xmlns:xlink="http://www.w3.org/1999/xlink" x="0px" y="0px"
	 width="50px" height="50px" viewBox="0 0 50 50" enable-background="new 0 0 50 50" xml:space="preserve">
<g id="XMLID_273_">
	<path id="XMLID_230_" fill="#D1D3D4" d="M27.961,43.163V23.446h-5.922v19.717c-1.931,0.215-3.424,1.656-3.424,3.404
		c0,1.896,1.757,3.433,3.924,3.433c0.933,0,1.789-0.285,2.462-0.761C25.673,49.715,26.529,50,27.462,50
		c2.167,0,3.924-1.537,3.924-3.433C31.386,44.819,29.893,43.378,27.961,43.163z"/>
	<path id="XMLID_235_" fill="#C49A6C" d="M37.5,12.499C37.5,3.959,31.903,0,25,0S12.5,3.959,12.5,12.499
		c0,5.956,2.723,12.396,6.712,15.749c0.966,0.812,1.494,1.945,1.494,3.117v0.985c0,0.854,0.791,1.545,1.766,1.545h4.985
		c1.015,0,1.838-0.72,1.838-1.606v-0.217c0-1.582,0.718-3.089,1.962-4.237C34.989,24.385,37.5,18.218,37.5,12.499z"/>
</g>
</svg>
