<?xml version="1.0" encoding="utf-8"?>
<!-- Generator: Adobe Illustrator 16.0.0, SVG Export Plug-In . SVG Version: 6.00 Build 0)  -->
<!DOCTYPE svg PUBLIC "-//W3C//DTD SVG 1.1//EN" "http://www.w3.org/Graphics/SVG/1.1/DTD/svg11.dtd">
<svg version="1.1" id="Layer_1" xmlns="http://www.w3.org/2000/svg" xmlns:xlink="http://www.w3.org/1999/xlink" x="0px" y="0px"
	 width="50px" height="50px" viewBox="0 0 50 50" enable-background="new 0 0 50 50" xml:space="preserve">
<g id="XMLID_434_">
	<path id="XMLID_396_" fill="#92278F" d="M44.326,4.654c3.432,1.122,5.782,5.504,5.488,10.076
		c-0.517,8.021-7.022,18.425-14.717,25.722C23.018,51.909,4.54,53.345,0.764,43.186c-3.208-8.634,3.771-16.979,19.417-19.379
		c12.582-1.93,14.704-11.463,17.797-16.441C39.414,5.054,42.426,4.033,44.326,4.654z"/>
	<path id="XMLID_93_" fill="#39B54A" d="M49.814,14.73c0.767-5.482-0.912-8.747-3.723-10.1l1.08-3.098
		c0.226-0.646,0.165-1.3-0.131-1.414l-0.268-0.103c-0.296-0.114-0.699,0.361-0.873,1.027l-0.831,3.193
		c-2.492-0.729-5.088,0.168-7.265,3.375c0,0,2.137-1.63,4.229-0.676c0,0-1.955,1.849-2.798,4.625c0,0,3.597-4.368,5.294-3.666
		c0.884,1.029,1.749,6.374,1.749,6.374c0.901-3.963,0.666-5.445,0.666-5.445C49.565,10.033,49.814,14.73,49.814,14.73z"/>
</g>
</svg>
