<?xml version="1.0" encoding="utf-8"?>
<!-- Generator: Adobe Illustrator 16.0.0, SVG Export Plug-In . SVG Version: 6.00 Build 0)  -->
<!DOCTYPE svg PUBLIC "-//W3C//DTD SVG 1.1//EN" "http://www.w3.org/Graphics/SVG/1.1/DTD/svg11.dtd">
<svg version="1.1" id="Layer_1" xmlns="http://www.w3.org/2000/svg" xmlns:xlink="http://www.w3.org/1999/xlink" x="0px" y="0px"
	 width="50px" height="50px" viewBox="0 0 50 50" enable-background="new 0 0 50 50" xml:space="preserve">
<g id="XMLID_429_">
	<path id="XMLID_31_" fill="#C49A6C" d="M27.853,50h-5.706c-6.713,0-11.692-5.845-11.16-12.577l0.907-11.465
		c0.434-5.485,5.24-9.671,10.76-9.671h4.691c5.52,0,10.326,4.187,10.76,9.671l0.907,11.465C39.545,44.155,34.566,50,27.853,50z"/>
	<path id="XMLID_15_" fill="#6B594D" d="M47.5,22.219c0,12.271-10.074,7.179-22.5,7.179c-12.427,0-22.5,5.092-22.5-7.179
		C2.5,9.948,12.573,0,25,0C37.426,0,47.5,9.948,47.5,22.219z"/>
</g>
</svg>
