<?xml version="1.0" encoding="utf-8"?>
<!-- Generator: Adobe Illustrator 16.0.0, SVG Export Plug-In . SVG Version: 6.00 Build 0)  -->
<!DOCTYPE svg PUBLIC "-//W3C//DTD SVG 1.1//EN" "http://www.w3.org/Graphics/SVG/1.1/DTD/svg11.dtd">
<svg version="1.1" id="Layer_1" xmlns="http://www.w3.org/2000/svg" xmlns:xlink="http://www.w3.org/1999/xlink" x="0px" y="0px"
	 width="50px" height="50px" viewBox="0 0 50 50" enable-background="new 0 0 50 50" xml:space="preserve">
<g id="XMLID_385_">
	<path id="XMLID_78_" fill="#8DC63F" d="M47.5,35.968C47.5,43.539,38.112,50,25.442,50S2.5,45.473,2.5,33.879
		c0-5.917,7.196-10.124,8.593-14.509C14.464,8.796,17.38,6.036,25.442,6.036c8.065,0,13.361,5.65,14.552,13.032
		C41.415,27.866,47.5,27.405,47.5,35.968z"/>
	<path id="XMLID_616_" fill="#6B594D" d="M25.442,6.036c0.262,0,0.52,0.006,0.776,0.018l0.611-5.084C26.892,0.449,26.337,0,25.629,0
		h-1.237c-0.677,0-1.226,0.406-1.226,0.906v5.219C23.877,6.064,24.634,6.036,25.442,6.036z"/>
</g>
</svg>
