<?xml version="1.0" encoding="utf-8"?>
<!-- Generator: Adobe Illustrator 16.0.0, SVG Export Plug-In . SVG Version: 6.00 Build 0)  -->
<!DOCTYPE svg PUBLIC "-//W3C//DTD SVG 1.1//EN" "http://www.w3.org/Graphics/SVG/1.1/DTD/svg11.dtd">
<svg version="1.1" id="Layer_1" xmlns="http://www.w3.org/2000/svg" xmlns:xlink="http://www.w3.org/1999/xlink" x="0px" y="0px"
	 width="50px" height="50px" viewBox="0 0 50 50" enable-background="new 0 0 50 50" xml:space="preserve">
<g id="XMLID_274_">
	<g id="XMLID_489_">
		<path id="XMLID_433_" fill="#F7941E" d="M39.694,7.652c-7.648-2.946-10.655,1.374-14.696,1.374c-5.479,0-6.973-4.476-14.695-1.374
			c-5.62,2.257-9.187,11.376-7.29,22.984c1.896,11.608,8.234,20.138,14.156,19.052c0.613-0.112,1.198-0.324,1.751-0.625
			c0.918-0.5,2.016-0.514,2.916,0.022c1,0.595,2.062,0.915,3.162,0.915c1.1,0,2.162-0.32,3.162-0.915
			c0.901-0.536,1.998-0.522,2.916-0.022c0.554,0.301,1.139,0.513,1.752,0.625c5.922,1.086,12.26-7.443,14.156-19.052
			C48.881,19.028,45.343,9.827,39.694,7.652z"/>
		<path id="XMLID_460_" fill="#39B54A" d="M23.697,5.717c-2.358,0.095-4.595,0.434-6.635,1.04c2.716,0.588,4.577,2.269,7.935,2.269
			c2.615,0,4.797-1.809,8.086-2.287c-2.023-0.595-4.24-0.928-6.575-1.021l0.343-4.119C26.923,0.739,26.284,0,25.47,0h-0.734
			c-0.814,0-1.453,0.739-1.381,1.599L23.697,5.717z"/>
	</g>
</g>
</svg>
