<?xml version="1.0" encoding="utf-8"?>
<!-- Generator: Adobe Illustrator 16.0.0, SVG Export Plug-In . SVG Version: 6.00 Build 0)  -->
<!DOCTYPE svg PUBLIC "-//W3C//DTD SVG 1.1//EN" "http://www.w3.org/Graphics/SVG/1.1/DTD/svg11.dtd">
<svg version="1.1" id="Layer_1" xmlns="http://www.w3.org/2000/svg" xmlns:xlink="http://www.w3.org/1999/xlink" x="0px" y="0px"
	 width="50px" height="50px" viewBox="0 0 50 50" enable-background="new 0 0 50 50" xml:space="preserve">
<g id="XMLID_246_">
	<path id="XMLID_256_" fill="#39B54A" d="M22.926,0c1.357,7.438,2.254,17.405,2.913,28.677h-2.297
		c-0.353-8.25-1.916-13.916-4.289-26.604L22.926,0z"/>
	<path id="XMLID_247_" fill="#39B54A" d="M27.074,0c-1.357,7.438-2.254,17.405-2.913,28.677h2.297
		c0.353-8.25,1.916-13.916,4.288-26.604L27.074,0z"/>
	<path id="XMLID_95_" fill="#F7941E" d="M31.311,32.172L31.311,32.172c-3.341-2.479-3.533-11.294-3.533-11.294l-2.467,4.196
		c-0.133,0.226-0.498,0.231-0.639,0.009l-0.861-1.357c-0.172-0.271-0.566-0.361-0.866-0.197l-0.371,0.203
		c0,0,0.639,5.539-4.335,8.721c-0.005,0.004-0.01,0.007-0.016,0.011c-3.443,2.249-5.723,5.892-5.723,8.853
		c0,3.913,3.978,7.2,9.362,8.137C22.201,49.787,22.694,50,23.244,50h3.512c0.551,0,1.043-0.213,1.382-0.548
		c5.386-0.937,9.362-4.224,9.362-8.137C37.5,38.223,35.014,34.387,31.311,32.172z"/>
</g>
</svg>
