<?xml version="1.0" encoding="utf-8"?>
<!-- Generator: Adobe Illustrator 16.0.0, SVG Export Plug-In . SVG Version: 6.00 Build 0)  -->
<!DOCTYPE svg PUBLIC "-//W3C//DTD SVG 1.1//EN" "http://www.w3.org/Graphics/SVG/1.1/DTD/svg11.dtd">
<svg version="1.1" id="Layer_1" xmlns="http://www.w3.org/2000/svg" xmlns:xlink="http://www.w3.org/1999/xlink" x="0px" y="0px"
	 width="50px" height="50px" viewBox="0 0 50 50" enable-background="new 0 0 50 50" xml:space="preserve">
<path id="XMLID_250_" fill="#BE1E2D" d="M25.554,5.981c-12.426,0-22.5,4.742-22.5,16.388C3.054,34.015,17.475,50,25.554,50
	s22.5-15.985,22.5-27.631C48.055,10.723,37.98,5.981,25.554,5.981z"/>
<path id="XMLID_252_" fill="#39B54A" d="M47.104,16.698C44.472,9.576,36.656,6.347,27.226,6.011l0.407-4.331
	C27.718,0.777,26.958,0,25.99,0h-0.872C24.15,0,23.39,0.777,23.476,1.68l0.407,4.331C15.938,6.294,9.14,8.629,5.621,13.615
	c0,0,4.801-3.022,11.775-2.838c0,0-4.079,3.207-4.079,7.029c0,0,6.645-7.091,12.237-7.029c3.506,0.851,10.79,7.029,10.79,7.029
	c-0.886-5.314-2.895-7.029-2.895-7.029C42.198,11.024,47.104,16.698,47.104,16.698z"/>
<path id="XMLID_248_" fill="#CC6360" d="M9.82,21.654c0.131,0.443-0.146,0.902-0.62,1.025c-0.472,0.123-0.961-0.136-1.093-0.58
	c-0.132-0.443-0.192-2.041,0.28-2.164C8.861,19.813,9.688,21.212,9.82,21.654z"/>
<path id="XMLID_5_" fill="#CC6360" d="M10.098,30.908c-0.34-0.333-0.326-0.859,0.028-1.177c0.355-0.318,0.917-0.307,1.256,0.026
	s1.198,1.715,0.843,2.032C11.87,32.107,10.437,31.241,10.098,30.908z"/>
<path id="XMLID_9_" fill="#CC6360" d="M32.476,24.123c-0.339-0.333-0.326-0.859,0.028-1.177c0.355-0.318,0.918-0.306,1.255,0.027
	c0.34,0.333,1.198,1.714,0.844,2.032C34.247,25.323,32.813,24.456,32.476,24.123z"/>
<path id="XMLID_7_" fill="#CC6360" d="M29.526,28.217c0.396-0.272,0.943-0.188,1.228,0.188c0.283,0.377,0.191,0.903-0.2,1.175
	c-0.395,0.272-1.958,0.889-2.24,0.513C28.031,29.715,29.132,28.488,29.526,28.217z"/>
<path id="XMLID_12_" fill="#CC6360" d="M14.843,24.123c-0.338-0.333-0.325-0.859,0.03-1.177c0.354-0.318,0.917-0.306,1.255,0.027
	c0.339,0.333,1.198,1.714,0.843,2.032C16.616,25.323,15.182,24.456,14.843,24.123z"/>
<path id="XMLID_1_" fill="#CC6360" d="M19.568,35.316c-0.262,0.39-0.807,0.5-1.215,0.247s-0.527-0.773-0.264-1.162
	c0.262-0.391,1.48-1.505,1.89-1.251C20.386,33.403,19.83,34.926,19.568,35.316z"/>
<path id="XMLID_2_" fill="#CC6360" d="M20.924,28.285c-0.338-0.332-0.325-0.859,0.03-1.177c0.354-0.318,0.917-0.306,1.255,0.027
	c0.34,0.332,1.199,1.714,0.843,2.032C22.698,29.485,21.264,28.618,20.924,28.285z"/>
<path id="XMLID_4_" fill="#CC6360" d="M39.107,20.592c0.078-0.455,0.534-0.763,1.019-0.69c0.485,0.074,0.813,0.5,0.736,0.954
	c-0.078,0.454-0.734,1.93-1.219,1.857C39.157,22.64,39.029,21.045,39.107,20.592z"/>
<path id="XMLID_8_" fill="#CC6360" d="M17.27,40.339c0.079-0.454,0.534-0.763,1.019-0.688c0.483,0.072,0.814,0.499,0.735,0.953
	c-0.078,0.453-0.735,1.931-1.219,1.856C17.319,42.388,17.192,40.792,17.27,40.339z"/>
<path id="XMLID_6_" fill="#CC6360" d="M39.905,31.794c-0.288,0.372-0.198,0.893,0.2,1.161c0.397,0.27,0.953,0.186,1.24-0.187
	c0.286-0.373,0.936-1.852,0.538-2.12C41.485,30.379,40.191,31.421,39.905,31.794z"/>
<path id="XMLID_10_" fill="#CC6360" d="M32.947,38.873c-0.288,0.373-0.197,0.894,0.2,1.163s0.952,0.185,1.239-0.188
	c0.288-0.372,0.938-1.852,0.54-2.12C34.528,37.459,33.234,38.501,32.947,38.873z"/>
<path id="XMLID_3_" fill="#CC6360" d="M24.586,44.982c-0.289,0.373-0.197,0.894,0.2,1.163c0.397,0.271,0.952,0.185,1.24-0.188
	s0.938-1.852,0.539-2.12C26.167,43.568,24.873,44.61,24.586,44.982z"/>
<path id="XMLID_13_" fill="#CC6360" d="M26.394,35.599c-0.475-0.106-0.946,0.174-1.053,0.626c-0.109,0.451,0.189,0.903,0.664,1.01
	c0.473,0.105,2.164,0.1,2.271-0.353S26.868,35.704,26.394,35.599z"/>
<path id="XMLID_11_" fill="#CC6360" d="M23.007,19.826c-0.288,0.373-0.198,0.893,0.2,1.163c0.398,0.27,0.954,0.185,1.241-0.187
	c0.287-0.373,0.936-1.852,0.54-2.121C24.588,18.411,23.295,19.454,23.007,19.826z"/>
</svg>
