<?xml version="1.0" encoding="utf-8"?>
<!-- Generator: Adobe Illustrator 16.0.0, SVG Export Plug-In . SVG Version: 6.00 Build 0)  -->
<!DOCTYPE svg PUBLIC "-//W3C//DTD SVG 1.1//EN" "http://www.w3.org/Graphics/SVG/1.1/DTD/svg11.dtd">
<svg version="1.1" id="Layer_1" xmlns="http://www.w3.org/2000/svg" xmlns:xlink="http://www.w3.org/1999/xlink" x="0px" y="0px"
	 width="50px" height="50px" viewBox="0 0 50 50" enable-background="new 0 0 50 50" xml:space="preserve">
<g id="XMLID_331_">
	<path id="XMLID_38_" fill="#39B54A" d="M25.387,10.846c0,0,0.136-0.071,0.382-0.19l0.779-9.595C26.595,0.49,26.185,0,25.663,0
		H24.75c-0.5,0-0.905,0.443-0.905,0.991v9.363C24.809,10.636,25.387,10.846,25.387,10.846z"/>
	<path id="XMLID_294_" fill="#BE1E2D" d="M47.5,29.004c0,11.52-7.214,18.887-16.963,20.88c-1.771,0.362-3.627-0.32-5.537-0.32
		c-1.881,0-3.709,0.688-5.456,0.337C9.754,47.932,2.5,40.555,2.5,29.004c0-7.837,3.339-13.957,8.543-17.74
		C14.879,8.476,19.728,9.93,25,9.93c4.921,0,9.473-1.65,13.176,0.793C43.825,14.449,47.5,20.782,47.5,29.004z"/>
	<path id="XMLID_406_" fill="#39B54A" d="M11.043,5.423c0,0,4.115,4.357,13.943,3.864c0,0-1.954,2.552-7.349,1.916
		C13.619,10.73,11.043,5.423,11.043,5.423z"/>
	<path id="XMLID_29_" fill="#39B54A" d="M38.93,5.423c0,0-4.115,4.357-13.943,3.864c0,0,1.954,2.552,7.35,1.916
		C36.354,10.73,38.93,5.423,38.93,5.423z"/>
</g>
</svg>
