<?xml version="1.0" encoding="utf-8"?>
<!-- Generator: Adobe Illustrator 16.0.0, SVG Export Plug-In . SVG Version: 6.00 Build 0)  -->
<!DOCTYPE svg PUBLIC "-//W3C//DTD SVG 1.1//EN" "http://www.w3.org/Graphics/SVG/1.1/DTD/svg11.dtd">
<svg version="1.1" id="Layer_1" xmlns="http://www.w3.org/2000/svg" xmlns:xlink="http://www.w3.org/1999/xlink" x="0px" y="0px"
	 width="50px" height="50px" viewBox="0 0 50 50" enable-background="new 0 0 50 50" xml:space="preserve">
<g id="XMLID_371_">
	<path id="XMLID_205_" fill="#2BB673" d="M2.5,35.355c12.426,19.526,32.573,19.526,45,0l0,0L25,0L2.5,35.355z"/>
	<path id="XMLID_3_" fill="#70C385" d="M3.589,33.645c11.825,18.581,30.997,18.581,42.822,0l0,0L25,0L3.589,33.645z"/>
	<path id="XMLID_202_" fill="#BE1E2D" d="M5.807,30.159c10.6,16.656,27.786,16.656,38.387,0l0,0L25,0L5.807,30.159z"/>
	<g id="XMLID_76_">
		<path id="XMLID_77_" fill="#414042" d="M13.398,25.991c-0.365-0.213-1.12,1.557-1.255,2.131c-0.135,0.575,0.051,1.213,0.417,1.426
			s0.771-0.08,0.907-0.654C13.602,28.319,13.764,26.204,13.398,25.991z"/>
		<path id="XMLID_2_" fill="#414042" d="M23.425,25.991c-0.365-0.213-1.12,1.557-1.255,2.131c-0.135,0.575,0.051,1.213,0.417,1.426
			s0.771-0.08,0.907-0.654C23.629,28.319,23.791,26.204,23.425,25.991z"/>
		<path id="XMLID_83_" fill="#414042" d="M24.917,10.429c-0.388-0.064-0.841,1.943-0.882,2.553c-0.041,0.609,0.24,1.155,0.627,1.22
			c0.388,0.065,0.735-0.376,0.776-0.986C25.48,12.606,25.305,10.494,24.917,10.429z"/>
		<path id="XMLID_84_" fill="#414042" d="M32.91,32.284c-0.388-0.064-0.842,1.943-0.883,2.553c-0.041,0.608,0.24,1.155,0.628,1.22
			s0.735-0.377,0.776-0.986S33.298,32.349,32.91,32.284z"/>
		<path id="XMLID_85_" fill="#414042" d="M37.623,24.093c-0.385-0.091-0.894,1.884-0.951,2.489
			c-0.059,0.606,0.207,1.171,0.593,1.262c0.386,0.092,0.745-0.326,0.803-0.932S38.009,24.184,37.623,24.093z"/>
		<path id="XMLID_1_" fill="#414042" d="M29.724,20.093c-0.385-0.091-0.894,1.884-0.951,2.489c-0.059,0.606,0.207,1.171,0.593,1.262
			c0.386,0.092,0.745-0.326,0.803-0.932S30.109,20.184,29.724,20.093z"/>
		<path id="XMLID_86_" fill="#414042" d="M18.288,34.254c-0.292,0.406,0.346,2.287,0.604,2.745c0.258,0.459,0.705,0.502,0.996,0.096
			c0.292-0.406,0.319-1.107,0.061-1.565C19.69,35.07,18.58,33.848,18.288,34.254z"/>
		<path id="XMLID_4_" fill="#414042" d="M19.15,17.873c-0.292,0.406,0.346,2.287,0.604,2.745c0.258,0.459,0.705,0.502,0.996,0.096
			c0.292-0.406,0.319-1.107,0.061-1.565C20.553,18.689,19.442,17.467,19.15,17.873z"/>
	</g>
</g>
</svg>
