<?xml version="1.0" encoding="utf-8"?>
<!-- Generator: Adobe Illustrator 16.0.0, SVG Export Plug-In . SVG Version: 6.00 Build 0)  -->
<!DOCTYPE svg PUBLIC "-//W3C//DTD SVG 1.1//EN" "http://www.w3.org/Graphics/SVG/1.1/DTD/svg11.dtd">
<svg version="1.1" id="Layer_1" xmlns="http://www.w3.org/2000/svg" xmlns:xlink="http://www.w3.org/1999/xlink" x="0px" y="0px"
	 width="40px" height="40px" viewBox="0 0 40 40" enable-background="new 0 0 40 40" xml:space="preserve">
<g>
	<path fill="#FFFFFF" d="M36.546,28.764l-1.994-1.151l1.875-1.077l-0.882-1.051l-2.341,1.351l-1.04-0.598l2.712-1.557l-0.888-1.033
		l-3.169,1.812l-3.722-2.145l2.221-0.819l-1.518-1.825h2l2.358,2.833l1.165-0.672l-1.798-2.162h1.588v-1.343h-1.591l1.801-2.165
		l-1.165-0.673l-2.361,2.838h-2l1.521-1.83l-2.221-0.818l3.722-2.145l3.169,1.81l0.888-1.031l-2.712-1.555l1.04-0.6l2.341,1.352
		l0.882-1.051l-1.875-1.078l1.994-1.15l-0.684-1.181l-1.993,1.151l0.004-2.162L32.522,9.28v2.702l-1.04,0.602l0.01-3.126
		l-1.338,0.251L30.14,13.36l-3.72,2.15l0.402-2.334l-2.339,0.404l0.999-1.733l3.633-0.625V9.878l-2.77,0.475l0.794-1.374
		l-1.165-0.671L25.18,9.684l-0.973-2.641l-1.166,0.671l1.276,3.462l-1.001,1.732l-0.821-2.23l-1.821,1.514l0.003-4.295l3.155-1.838
		l-0.45-1.283l-2.703,1.57V5.145l2.342-1.353l-0.47-1.288l-1.872,1.084l0.001-2.3l-1.363,0.001l0.001,2.301l-1.871-1.084
		l-0.469,1.288l2.34,1.353l0.002,1.2l-2.704-1.57L16.164,6.06l3.155,1.838l0.004,4.297l-1.82-1.514l-0.822,2.227l-1-1.731
		l1.275-3.457l-1.165-0.673l-0.974,2.635l-0.792-1.373l-1.164,0.671l0.795,1.377l-2.774-0.478v1.347l3.636,0.625l1.001,1.732
		l-2.342-0.403l0.399,2.334l-3.719-2.151L9.842,9.71L8.505,9.458l0.009,3.126l-1.039-0.601V9.28L6.123,9.043l0.004,2.162
		l-1.992-1.151l-0.681,1.183l1.994,1.148l-1.876,1.079l0.883,1.049l2.34-1.352l1.041,0.602l-2.712,1.555l0.886,1.032l3.17-1.812
		l3.724,2.146l-2.224,0.818l1.52,1.826h-2l-2.358-2.834l-1.165,0.672l1.798,2.162H6.886v1.343h1.591l-1.801,2.164l1.165,0.673
		l2.36-2.836h2.001l-1.522,1.828l2.224,0.82L9.18,25.464l-3.17-1.812l-0.886,1.033l2.712,1.556l-1.041,0.6l-2.34-1.354l-0.883,1.052
		l1.876,1.078l-1.994,1.149l0.685,1.182l1.991-1.153l-0.004,2.164l1.351-0.238v-2.705l1.04-0.6l-0.009,3.128l1.337-0.252L9.86,26.64
		l3.719-2.152l-0.401,2.334l2.34-0.401l-1.001,1.733l-3.632,0.624v1.345l2.77-0.477l-0.793,1.375l1.164,0.672l0.795-1.377
		l0.974,2.642l1.166-0.674l-1.278-3.462l1.001-1.731l0.823,2.23l1.819-1.515l-0.001,4.296l-3.156,1.841l0.449,1.284l2.705-1.573
		l-0.001,1.201l-2.342,1.352l0.47,1.29l1.871-1.086l-0.001,2.302l1.364-0.002l-0.001-2.302l1.872,1.086l0.468-1.288l-2.341-1.354
		l-0.001-1.199l2.704,1.568l0.45-1.281l-3.155-1.84l-0.001-4.296l1.818,1.514l0.821-2.228l0.999,1.732l-1.273,3.459l1.167,0.673
		l0.972-2.637l0.792,1.374l1.165-0.672l-0.796-1.377l2.773,0.476v-1.346l-3.636-0.623l-1-1.732l2.344,0.402l-0.401-2.335
		l3.719,2.151l0.015,3.653l1.337,0.251l-0.007-3.128l1.04,0.601v2.704l1.349,0.237l-0.004-2.163l1.993,1.153L36.546,28.764z
		 M25.603,22.453l-3.091-1.782h3.565l1.024,1.231L25.603,22.453z M25.603,17.543l1.499,0.551l-1.027,1.235h-3.567L25.603,17.543z
		 M23.62,24.923l-1.785-3.09l3.095,1.789l0.271,1.574L23.62,24.923z M23.621,15.072l1.577-0.271l-0.271,1.573l-3.089,1.786
		L23.621,15.072z M20.674,13.919l1.226-1.022l0.556,1.507l-1.784,3.09L20.674,13.919z M20.677,26.078l-0.003-3.567l1.783,3.087
		l-0.554,1.503L20.677,26.078z M19.326,26.078L18.1,27.103l-0.555-1.508l1.783-3.088L19.326,26.078z M19.324,13.92l0.002,3.569
		l-1.782-3.088l0.553-1.501L19.324,13.92z M16.38,24.925l-1.578,0.273l0.271-1.574l3.089-1.785L16.38,24.925z M16.382,15.075
		l1.782,3.089l-3.094-1.788l-0.271-1.574L16.382,15.075z M14.396,22.457l-1.498-0.552l1.027-1.234h3.568L14.396,22.457z
		 M14.396,17.546l3.091,1.783h-3.564l-1.024-1.232L14.396,17.546z"/>
</g>
</svg>
