<?xml version="1.0" encoding="utf-8"?>
<!-- Generator: Adobe Illustrator 16.0.0, SVG Export Plug-In . SVG Version: 6.00 Build 0)  -->
<!DOCTYPE svg PUBLIC "-//W3C//DTD SVG 1.1//EN" "http://www.w3.org/Graphics/SVG/1.1/DTD/svg11.dtd">
<svg version="1.1" id="Layer_1" xmlns="http://www.w3.org/2000/svg" xmlns:xlink="http://www.w3.org/1999/xlink" x="0px" y="0px"
	 width="40px" height="40px" viewBox="0 0 40 40" enable-background="new 0 0 40 40" xml:space="preserve">
<g>
	<path fill="#FFFFFF" d="M12.167,7.264L9.239,7.34L8.053,4.967l3.244-0.078c0.079-0.082,0.158-0.158,0.158-0.238
		c0.237-0.237,0.555-0.317,0.79-0.237l1.9-2.688l1.267,2.291L13.748,6.39l14.086,26.429l2.926-0.083l1.188,2.297l-3.324,0.081
		c0,0.08-0.079,0.158-0.156,0.236c-0.239,0.235-0.478,0.313-0.714,0.235l-1.979,2.691l-1.187-2.297l1.662-2.372L12.167,7.264z"/>
	<path fill="#FFFFFF" d="M23.084,5.362l-2.214-1.98l0.712-2.529l2.453,2.213c0.078,0,0.158-0.076,0.316-0.076
		c0.315,0,0.555,0.158,0.711,0.393l3.244-0.708l-0.712,2.531l-2.848,0.632l-7.832,28.799l2.215,1.978l-0.711,2.534l-2.454-2.217
		c-0.08,0.082-0.158,0.082-0.318,0.082c-0.315,0-0.551-0.16-0.71-0.318l-3.244,0.632l0.632-2.531l2.93-0.554L23.084,5.362z"/>
	<path fill="#FFFFFF" d="M32.818,12.323V9.396l2.294-1.186l0.08,3.324c0.158,0.076,0.315,0.236,0.394,0.393
		c0.078,0.239,0.078,0.396,0.078,0.558l2.693,1.899l-2.294,1.182l-2.376-1.659L7.104,27.673L7.183,30.6L4.81,31.864v-3.319
		c-0.08-0.08-0.159-0.08-0.238-0.158c-0.237-0.238-0.316-0.554-0.237-0.792l-2.689-1.98l2.293-1.186l2.373,1.744L32.818,12.323z"/>
	<path fill="#FFFFFF" d="M34.559,23.479l1.979-2.133l2.531,0.791l-2.294,2.373c0.077,0.236,0.077,0.396,0,0.631
		c-0.078,0.161-0.158,0.318-0.237,0.396l0.555,3.246l-2.533-0.715l-0.476-2.927L5.442,16.518l-2.058,2.136l-2.453-0.79l2.215-2.373
		c0-0.16,0-0.395,0-0.634c0.08-0.158,0.238-0.317,0.316-0.396L2.91,11.218l2.532,0.71l0.476,2.929L34.559,23.479z"/>
	<path fill="#FFFFFF" d="M21.582,15.412l-1.581-3.324c-0.079-0.316-0.634-0.477-0.792,0l0.792-0.078l-0.792,0.078l-1.423,3.876
		l-3.324-1.579c-0.316-0.16-0.871,0.154-0.634,0.551l0.555-0.551l-0.555,0.551l1.584,3.481L12.088,20
		c-0.396,0.078-0.475,0.632,0,0.791L12.01,20l0.078,0.791l3.877,1.424l-1.582,3.321c-0.237,0.319,0.158,0.873,0.554,0.637
		l-0.554-0.559l0.554,0.559l3.4-1.586l1.664,3.322c0.078,0.399,0.634,0.478,0.79,0l-0.79,0.081l0.79-0.081l1.425-3.873l3.322,1.578
		c0.316,0.241,0.87-0.155,0.634-0.55l-0.556,0.55l0.556-0.55l-1.583-3.402L27.914,20c0.314-0.08,0.475-0.634,0-0.79L27.99,20
		l-0.076-0.79l-3.879-1.427l1.581-3.322c0.159-0.316-0.156-0.872-0.554-0.632l0.554,0.556l-0.554-0.556L21.582,15.412L21.582,15.412
		z M19.604,13.117l1.979,3.322l2.93-1.504l-1.11,3.086l0.237,0.554l3.245,1.109l-3.323,1.896l1.502,2.93L21.979,23.4l-0.555,0.24
		l-1.108,3.24l-1.897-3.322l-2.929,1.506l1.107-3.089l-0.237-0.552l-3.243-1.026l3.323-1.98l-1.504-2.927l3.087,1.107l0.554-0.237
		L19.604,13.117L19.604,13.117z M18.577,16.36L18.577,16.36c-0.08,0.157-0.24,0.317-0.554,0.237L18.577,16.36L18.577,16.36z
		 M16.44,18.417L16.44,18.417c0.078,0.158,0,0.476-0.238,0.556L16.44,18.417L16.44,18.417z M16.36,21.424L16.36,21.424
		c0.158,0.078,0.317,0.238,0.237,0.552L16.36,21.424L16.36,21.424z M18.419,23.559L18.419,23.559c0.158-0.08,0.395,0,0.552,0.238
		L18.419,23.559L18.419,23.559z M21.425,23.641L21.425,23.641c0.078-0.162,0.237-0.316,0.555-0.24L21.425,23.641L21.425,23.641z
		 M23.561,21.58L23.561,21.58c-0.081-0.156,0-0.393,0.238-0.552L23.561,21.58L23.561,21.58z M23.639,18.575L23.639,18.575
		c-0.159-0.077-0.315-0.236-0.237-0.554L23.639,18.575L23.639,18.575z M21.582,16.439L21.582,16.439
		c-0.157,0.078-0.475,0-0.552-0.238L21.582,16.439z"/>
	<path fill="#FFFFFF" d="M22.611,12.323l-2.61-5.299c-0.159-0.71-1.347-0.95-1.664,0l1.664-0.16l-1.664,0.16l-1.896,5.696
		l-5.618-1.979c-0.633-0.315-1.583,0.395-1.188,1.186l1.029-1.186l-1.029,1.186l2.689,5.461L6.944,20
		c-0.634,0.158-0.868,1.346,0,1.662L6.866,20l0.078,1.662l5.698,1.896l-1.899,5.618c-0.315,0.634,0.396,1.583,1.188,1.188
		l-1.188-1.028l1.188,1.028l5.459-2.691l2.532,5.382c0.236,0.632,1.424,0.871,1.66,0l-1.581,0.076l1.581-0.076l1.979-5.696
		l5.618,1.899c0.632,0.314,1.581-0.394,1.188-1.19l-1.11,1.19l1.11-1.19l-2.692-5.458l5.302-2.531c0.712-0.236,0.948-1.425,0-1.661
		L33.134,20l-0.158-1.583l-5.696-1.978l1.977-5.616c0.317-0.634-0.395-1.583-1.187-1.188l1.187,1.107l-1.187-1.107L22.611,12.323
		L22.611,12.323z M19.209,9.317l2.216,4.512l1.187,0.396l4.43-2.297l-1.66,4.75l0.553,1.105l4.749,1.427l-4.511,2.292l-0.396,1.107
		l2.294,4.432l-4.746-1.66l-1.107,0.555l-1.425,4.746l-2.294-4.509l-1.107-0.398l-4.431,2.293l1.662-4.743l-0.556-1.109
		l-4.747-1.424l4.51-2.216l0.396-1.187l-2.293-4.434l4.747,1.662l1.108-0.553L19.209,9.317L19.209,9.317z M17.786,14.064
		L17.786,14.064c-0.159,0.396-0.556,0.714-1.108,0.553L17.786,14.064L17.786,14.064z M14.224,17.389L14.224,17.389
		c0.159,0.395,0.159,0.95-0.396,1.187L14.224,17.389L14.224,17.389z M14.065,22.215L14.065,22.215
		c0.396,0.158,0.714,0.554,0.556,1.109L14.065,22.215L14.065,22.215z M17.39,25.774L17.39,25.774c0.396-0.16,0.87-0.16,1.107,0.398
		L17.39,25.774L17.39,25.774z M22.216,25.936L22.216,25.936c0.157-0.399,0.555-0.712,1.107-0.555L22.216,25.936L22.216,25.936z
		 M25.775,22.609L25.775,22.609c-0.237-0.395-0.159-0.868,0.396-1.107L25.775,22.609L25.775,22.609z M25.934,17.783L25.934,17.783
		c-0.396-0.158-0.713-0.554-0.553-1.105L25.934,17.783L25.934,17.783z M22.611,14.225L22.611,14.225
		c-0.396,0.236-0.949,0.16-1.187-0.396L22.611,14.225z"/>
</g>
</svg>
