<?xml version="1.0" encoding="utf-8"?>
<!-- Generator: Adobe Illustrator 16.0.0, SVG Export Plug-In . SVG Version: 6.00 Build 0)  -->
<!DOCTYPE svg PUBLIC "-//W3C//DTD SVG 1.1//EN" "http://www.w3.org/Graphics/SVG/1.1/DTD/svg11.dtd">
<svg version="1.1" id="Layer_1" xmlns="http://www.w3.org/2000/svg" xmlns:xlink="http://www.w3.org/1999/xlink" x="0px" y="0px"
	 width="40px" height="40px" viewBox="0 0 40 40" enable-background="new 0 0 40 40" xml:space="preserve">
<g>
	<path fill-rule="evenodd" clip-rule="evenodd" fill="#FFFFFF" d="M6.618,33.691h2.925v-2.906H6.618V33.691z M18.04,37.562
		l2.07,2.053l2.072-2.053L20.11,35.49L18.04,37.562z M2.51,18.109l-2.055,2.072l2.07,2.035l2.054-2.035L2.51,18.109z M30.694,33.691
		h2.926v-2.906h-2.926V33.691z M9.378,6.434H6.467v2.92h2.911V6.434z M33.842,6.434h-2.926v2.92h2.926V6.434z M22.094,2.438
		l-2.07-2.053l-2.072,2.053l2.072,2.072L22.094,2.438z M36.548,24.529l-1.872-4.477l1.872-4.236l-3.428,3.57h-5.591l2.021-3.148
		l-3.593-0.664l3.959-4.016h4.854l-4.442-1.609L28.64,5.506v4.924l-3.865,4.033l-0.594-3.832l-3.221,2.189V7.375l3.516-3.664
		l-4.198,2.09l-4.386-1.924l3.515,3.498v5.445l-3.277-1.969l-0.533,3.611l-3.964-4.033V5.506l-1.533,4.443l-4.592,1.76h4.942
		l3.942,3.865l-4.054,0.887l2.499,2.926H7.246l-3.516-3.57l1.683,4.365l-1.683,4.348l3.516-3.666h5.591l-2.499,3.244l4.054,0.643
		l-3.942,3.943H5.507l4.592,1.576l1.478,4.404l0.056-4.848l3.815-3.814l0.682,3.926l3.277-2.428v5.609l-3.515,3.424l4.275-1.887
		l4.22,1.887l-3.427-3.424V27.51l3.221,2.205l0.594-3.832l3.942,3.943l0.074,4.848l1.427-4.293l4.552-1.688h-4.854l-3.959-3.795
		l3.814-1.125l-2.243-2.91h5.591L36.548,24.529z M15.891,17.15l2.388,2.236h-3.205L15.891,17.15z M16.041,23.273l-0.967-2.41h3.205
		L16.041,23.273z M19.406,25.273l-2.165-0.891l2.165-2.387V25.273z M19.406,18.258l-2.165-2.242l2.165-0.959V18.258z M24.386,17.15
		l0.833,2.236h-3.221L24.386,17.15z M21.038,15.057l2.31,0.959l-2.31,2.242V15.057z M21.038,25.346v-3.35l2.31,2.238L21.038,25.346z
		 M24.253,23.273l-2.255-2.41h3.443L24.253,23.273z M37.469,18.037l-2.072,2.051l2.072,2.053l2.076-2.053L37.469,18.037z"/>
</g>
</svg>
