<?xml version="1.0" encoding="utf-8"?>
<!-- Generator: Adobe Illustrator 16.0.0, SVG Export Plug-In . SVG Version: 6.00 Build 0)  -->
<!DOCTYPE svg PUBLIC "-//W3C//DTD SVG 1.1//EN" "http://www.w3.org/Graphics/SVG/1.1/DTD/svg11.dtd">
<svg version="1.1" id="Layer_1" xmlns="http://www.w3.org/2000/svg" xmlns:xlink="http://www.w3.org/1999/xlink" x="0px" y="0px"
	 width="40px" height="40px" viewBox="0 0 40 40" enable-background="new 0 0 40 40" xml:space="preserve">
<g>
	<polygon fill="#FFFFFF" points="20,20.001 17.541,10.533 20,6.355 22.463,10.533 	"/>
	<polygon fill="#FFFFFF" points="17.912,6.333 17.912,1.622 20,4.86 22.09,1.622 22.09,6.333 	"/>
	<polygon fill="#FFFFFF" points="26.646,8.52 27.004,13.133 31.348,9.287 29.773,3.104 23.631,4.831 22.471,10.516 	"/>
	<polygon fill="#FFFFFF" points="20,20.001 10.57,17.398 8.184,13.179 13.033,13.135 	"/>
	<polygon fill="#FFFFFF" points="7.121,14.975 3.041,12.62 6.889,12.431 5.129,9.004 9.209,11.358 	"/>
	<polygon fill="#FFFFFF" points="13.381,8.506 17.553,10.502 16.395,4.817 10.254,3.09 8.68,9.272 13.021,13.119 	"/>
	<polygon fill="#FFFFFF" points="20,20.001 13.033,26.867 8.184,26.822 10.57,22.604 	"/>
	<polygon fill="#FFFFFF" points="9.209,28.645 5.129,31 6.889,27.571 3.041,27.383 7.121,25.026 	"/>
	<polygon fill="#FFFFFF" points="6.736,19.987 10.553,17.371 5.049,15.532 0.48,19.987 5.049,24.443 10.553,22.604 	"/>
	<polygon fill="#FFFFFF" points="20,20.001 22.463,29.469 20,33.646 17.541,29.469 	"/>
	<polygon fill="#FFFFFF" points="22.09,33.669 22.09,38.378 20,35.141 17.912,38.378 17.912,33.669 	"/>
	<polygon fill="#FFFFFF" points="13.357,31.48 12.998,26.869 8.654,30.717 10.23,36.9 16.371,35.171 17.531,29.488 	"/>
	<polygon fill="#FFFFFF" points="20,20.001 29.432,22.604 31.82,26.822 26.971,26.867 	"/>
	<polygon fill="#FFFFFF" points="32.883,25.026 36.961,27.383 33.113,27.571 34.875,31 30.793,28.645 	"/>
	<polygon fill="#FFFFFF" points="26.621,31.496 22.447,29.499 23.607,35.186 29.748,36.911 31.322,30.729 26.98,26.884 	"/>
	<polygon fill="#FFFFFF" points="20,20.001 26.971,13.135 31.82,13.179 29.432,17.398 	"/>
	<polygon fill="#FFFFFF" points="30.793,11.358 34.875,9.003 33.113,12.431 36.961,12.62 32.883,14.975 	"/>
	<polygon fill="#FFFFFF" points="33.266,20.016 29.449,22.632 34.955,24.47 39.52,20.016 34.955,15.56 29.449,17.397 	"/>
</g>
</svg>
