<?xml version="1.0" encoding="utf-8"?>
<!-- Generator: Adobe Illustrator 16.0.0, SVG Export Plug-In . SVG Version: 6.00 Build 0)  -->
<!DOCTYPE svg PUBLIC "-//W3C//DTD SVG 1.1//EN" "http://www.w3.org/Graphics/SVG/1.1/DTD/svg11.dtd">
<svg version="1.1" id="Layer_1" xmlns="http://www.w3.org/2000/svg" xmlns:xlink="http://www.w3.org/1999/xlink" x="0px" y="0px"
	 width="40px" height="40px" viewBox="0 0 40 40" enable-background="new 0 0 40 40" xml:space="preserve">
<g>
	<polygon fill="#FFFFFF" points="24.228,5.031 22.876,3.678 21.808,4.746 21.808,2.609 19.994,0.796 18.214,2.577 18.214,4.774 
		17.115,3.676 15.763,5.028 18.968,8.246 16.174,10.002 20,20 23.824,10.002 21.025,8.242 	"/>
	<polygon fill="#FFFFFF" points="9.149,8.854 7.303,9.348 7.694,10.807 5.843,9.738 3.366,10.402 4.018,12.833 5.922,13.934 
		4.419,14.336 4.916,16.184 9.305,15.017 9.428,18.313 20,20 13.253,11.688 10.33,13.232 	"/>
	<polygon fill="#FFFFFF" points="4.922,23.822 4.427,25.669 5.886,26.061 4.035,27.129 3.371,29.606 5.802,30.257 7.707,29.159 
		7.304,30.66 9.151,31.156 10.336,26.771 13.253,28.312 20,20 9.428,21.686 9.305,24.989 	"/>
	<polygon fill="#FFFFFF" points="15.771,34.97 17.123,36.322 18.19,35.254 18.19,37.39 20.005,39.204 21.785,37.424 21.785,35.226 
		22.884,36.324 24.237,34.973 21.031,31.754 23.824,29.998 20,20 16.174,29.998 18.974,31.758 	"/>
	<polygon fill="#FFFFFF" points="30.849,31.146 32.696,30.652 32.307,29.193 34.154,30.262 36.634,29.598 35.981,27.165 
		34.077,26.067 35.579,25.664 35.084,23.817 30.694,24.982 30.571,21.686 20,20 26.746,28.312 29.668,26.768 	"/>
	<polygon fill="#FFFFFF" points="35.078,16.178 35.574,14.331 34.113,13.939 35.965,12.871 36.629,10.394 34.196,9.742 
		32.292,10.843 32.693,9.34 30.847,8.844 29.663,13.229 26.746,11.688 20,20 30.571,18.313 30.694,15.01 	"/>
</g>
</svg>
