<?xml version="1.0" encoding="utf-8"?>
<!-- Generator: Adobe Illustrator 16.0.0, SVG Export Plug-In . SVG Version: 6.00 Build 0)  -->
<!DOCTYPE svg PUBLIC "-//W3C//DTD SVG 1.1//EN" "http://www.w3.org/Graphics/SVG/1.1/DTD/svg11.dtd">
<svg version="1.1" id="Layer_1" xmlns="http://www.w3.org/2000/svg" xmlns:xlink="http://www.w3.org/1999/xlink" x="0px" y="0px"
	 width="40px" height="40px" viewBox="0 0 40 40" enable-background="new 0 0 40 40" xml:space="preserve">
<g>
	<path fill="#FFFFFF" d="M23.178,20.002l-1.59,2.754h-3.181l-1.591-2.754l1.591-2.754h3.181L23.178,20.002z M13.695,29.378
		l0.444,0.773l0.893-0.002l3.375-5.846h3.186l3.377,5.846l0.892,0.002l0.445-0.773l-3.386-5.861l1.587-2.746h6.766L31.723,20
		l-0.449-0.771h-6.776l-1.579-2.737l3.389-5.87l-0.445-0.773L24.97,9.852l-3.386,5.863h-3.168l-3.384-5.863l-0.893-0.002
		l-0.444,0.773l3.376,5.848l-1.592,2.759l-6.751,0L8.279,20l0.449,0.771h6.743l1.597,2.767L13.695,29.378z"/>
	<path fill="#FFFFFF" d="M15.734,39.08l0.889-1.548l-2.479-4.309l3.185-0.005v-0.001l0.006,0.003l2.665-4.619l2.665,4.619
		l0.006-0.003v0.001l3.185,0.005l-2.479,4.309l0.891,1.548l2.923-5.081l1.78,3.081l1.335-0.771l-1.778-3.081l5.862,0.009
		l-0.897-1.546l-4.97-0.007l1.59-2.761l-0.002-0.001l0.005-0.002l-2.666-4.618h5.331v-0.005h0.002l1.597-2.756l2.492,4.301
		l1.786,0.002l-2.938-5.072h3.557v-1.542h-3.557l2.938-5.072l-1.786,0.002l-2.492,4.302l-1.597-2.757h-0.002V15.7H27.45l2.666-4.618
		l-0.005-0.003l0.002,0l-1.59-2.762l4.97-0.007l0.897-1.546l-5.862,0.009l1.778-3.082L28.972,2.92l-1.78,3.081L24.269,0.92
		l-0.891,1.549l2.479,4.309l-3.185,0.005v0.001L22.666,6.78l-2.665,4.619L17.335,6.78L17.33,6.784V6.783l-3.185-0.005l2.479-4.309
		L15.732,0.92L12.81,6.001L11.03,2.92L9.695,3.691l1.779,3.082L5.611,6.764L6.507,8.31l4.971,0.007L9.89,11.079v0l-0.004,0.003
		l2.666,4.618H7.22v0.004H7.218l-1.596,2.757l-2.492-4.302l-1.785-0.002l2.938,5.072H0.725v1.542h3.558l-2.938,5.072l1.785-0.002
		l2.492-4.301l1.596,2.757l0.002,0v0.005h5.332l-2.665,4.618l0.003,0.002v0l1.588,2.761L6.507,31.69l-0.896,1.546l5.863-0.009
		l-1.779,3.082l1.335,0.771l1.779-3.081L15.734,39.08z M11.667,28.918l3.545-6.161H8.11L6.513,20l1.598-2.759l7.107-0.009
		l-3.55-6.15l1.59-2.764l3.187,0.005l3.562,6.15l3.552-6.15l3.188-0.005l1.59,2.764l-3.547,6.16h7.104L33.488,20l-1.597,2.758
		l-7.108,0.01l3.552,6.15l-1.59,2.762l-3.188-0.004l-3.562-6.15l-3.551,6.15l-3.187,0.005L11.667,28.918z"/>
</g>
</svg>
