<?xml version="1.0" encoding="utf-8"?>
<!-- Generator: Adobe Illustrator 16.0.0, SVG Export Plug-In . SVG Version: 6.00 Build 0)  -->
<!DOCTYPE svg PUBLIC "-//W3C//DTD SVG 1.1//EN" "http://www.w3.org/Graphics/SVG/1.1/DTD/svg11.dtd">
<svg version="1.1" id="Layer_1" xmlns="http://www.w3.org/2000/svg" xmlns:xlink="http://www.w3.org/1999/xlink" x="0px" y="0px"
	 width="40px" height="40px" viewBox="0 0 40 40" enable-background="new 0 0 40 40" xml:space="preserve">
<g>
	<path fill="#FFFFFF" d="M35.183,27.75l1.251,0.722l-0.89,1.541l-1.241-0.718v1.718l-1.78-1.02v-1.725l-1.117-0.646v3.391
		l-1.779-1.027l0-3.389l-1.116-0.645v5.061l-1.78-1.027v-4.044L21.78,28.8l3.504,2.023l-0.003,2.053l-4.402-2.541v1.289l2.956,1.707
		l-0.002,2.054l-2.954-1.706v1.289l1.513,0.874l-0.007,2.051l-1.506-0.869v1.445h-1.779v-1.435l-1.486,0.858l-0.007-2.051
		l1.493-0.862v-1.288l-2.934,1.693l-0.002-2.054l2.937-1.695l0-1.289l-4.381,2.529l-0.002-2.053l3.503-2.023l-4.952-2.858
		l0.001,4.044l-1.78,1.027v-5.084l-1.117,0.645v3.412l-1.779,1.027v-3.412l-1.117,0.645v1.748l-1.779,1.02v-1.74l-1.251,0.724
		l-0.89-1.542l1.242-0.718l-1.486-0.854l1.772-1.032l1.493,0.86l1.117-0.645L4.76,24.371l1.777-1.026l2.936,1.695l1.116-0.646
		l-4.381-2.528l1.776-1.031l3.504,2.023l0-5.717l-3.503,2.022l-1.776-1.028l4.401-2.542l-1.116-0.645l-2.956,1.707L4.76,15.626
		l2.954-1.705l-1.117-0.644l-1.513,0.871l-1.772-1.03l1.506-0.869l-1.251-0.723l0.89-1.541l1.241,0.717V8.986l1.779,1.021v1.723
		l1.117,0.645V8.986l1.779,1.026V13.4l1.117,0.646v-5.06l1.78,1.026v4.044l4.952-2.858l-3.504-2.022l0.002-2.054l4.401,2.542v-1.29
		l-2.956-1.706l0.002-2.054l2.954,1.705V5.03l-1.513-0.874l0.007-2.05l1.505,0.87V1.531h1.78v1.432l1.485-0.856l0.007,2.05
		L20.9,5.02v1.288l2.933-1.693l0.002,2.054L20.9,8.362v1.289l4.381-2.529l0.002,2.054l-3.503,2.022l4.951,2.858l0-4.046l1.78-1.024
		v5.084l1.116-0.646v-3.413l1.78-1.024v3.411l1.117-0.646v-1.745l1.78-1.021v1.738l1.25-0.722l0.89,1.541l-1.241,0.717l1.485,0.857
		l-1.772,1.03l-1.493-0.861l-1.117,0.646l2.934,1.693l-1.777,1.029l-2.937-1.696l-1.117,0.646l4.381,2.53l-1.776,1.028l-3.504-2.022
		v5.717l3.504-2.023l1.776,1.031l-4.402,2.54l1.117,0.644l2.957-1.704l1.777,1.026l-2.954,1.705l1.117,0.644l1.513-0.87l1.772,1.032
		L35.183,27.75z M26.732,23.885l0-7.773L20,12.225l-6.732,3.888l0,7.774l6.733,3.887L26.732,23.885z M23.359,21.946l3.373-1.947
		l-3.373-1.948l0-3.874l-3.356,1.936l-3.356-1.936l0,3.876l-3.374,1.946l3.374,1.947l0,3.876l3.355-1.938l3.357,1.938L23.359,21.946
		z M21.73,22.995l-1.728-0.997l-1.728,0.997V21l-1.737-1.002l1.737-1.003v-1.996l1.728,0.997l1.729-0.997v1.996l1.737,1.001
		L21.73,21V22.995z"/>
</g>
</svg>
