<?xml version="1.0" encoding="utf-8"?>
<!-- Generator: Adobe Illustrator 16.0.0, SVG Export Plug-In . SVG Version: 6.00 Build 0)  -->
<!DOCTYPE svg PUBLIC "-//W3C//DTD SVG 1.1//EN" "http://www.w3.org/Graphics/SVG/1.1/DTD/svg11.dtd">
<svg version="1.1" id="Layer_1" xmlns="http://www.w3.org/2000/svg" xmlns:xlink="http://www.w3.org/1999/xlink" x="0px" y="0px"
	 width="40px" height="40px" viewBox="0 0 40 40" enable-background="new 0 0 40 40" xml:space="preserve">
<g>
	<polygon fill="#FFFFFF" points="20,24.584 22.428,26.287 20,20 17.572,26.287 	"/>
	<polygon fill="#FFFFFF" points="20,29.173 22.428,30.877 20,24.589 17.572,30.877 	"/>
	<polygon fill="#FFFFFF" points="20,33.761 22.428,35.466 20,29.177 17.572,35.466 	"/>
	<polygon fill="#FFFFFF" points="23.97,22.292 26.659,21.042 20,20 24.232,25.246 	"/>
	<polygon fill="#FFFFFF" points="27.944,24.586 30.633,23.336 23.974,22.294 28.205,27.54 	"/>
	<polygon fill="#FFFFFF" points="31.918,26.881 34.606,25.63 27.948,24.589 32.18,29.835 	"/>
	<polygon fill="#FFFFFF" points="23.97,17.708 24.232,14.754 20,20 26.659,18.958 	"/>
	<polygon fill="#FFFFFF" points="27.944,15.414 28.205,12.46 23.974,17.705 30.633,16.663 	"/>
	<polygon fill="#FFFFFF" points="31.918,13.119 32.18,10.165 27.948,15.411 34.606,14.369 	"/>
	<polygon fill="#FFFFFF" points="20,15.415 17.572,13.712 20,20 22.428,13.712 	"/>
	<polygon fill="#FFFFFF" points="20,10.826 17.572,9.124 20,15.411 22.428,9.124 	"/>
	<polygon fill="#FFFFFF" points="20,6.239 17.572,4.535 20,10.823 22.428,4.535 	"/>
	<polygon fill="#FFFFFF" points="16.03,17.708 13.341,18.958 20,20 15.768,14.754 	"/>
	<polygon fill="#FFFFFF" points="12.055,15.414 9.367,16.663 16.026,17.705 11.795,12.46 	"/>
	<polygon fill="#FFFFFF" points="8.083,13.119 5.393,14.369 12.052,15.411 7.82,10.165 	"/>
	<polygon fill="#FFFFFF" points="16.03,22.292 15.768,25.246 20,20 13.341,21.042 	"/>
	<polygon fill="#FFFFFF" points="12.055,24.586 11.795,27.54 16.026,22.294 9.367,23.336 	"/>
	<polygon fill="#FFFFFF" points="8.083,26.881 7.82,29.835 12.052,24.589 5.393,25.631 	"/>
	<polygon fill="#FFFFFF" points="13.417,20 1.042,25.283 4.309,20 1.042,14.717 	"/>
	<polygon fill="#FFFFFF" points="16.709,25.701 15.097,39.061 12.154,33.589 5.945,33.776 	"/>
	<polygon fill="#FFFFFF" points="23.291,25.701 34.055,33.776 27.845,33.589 24.903,39.061 	"/>
	<polygon fill="#FFFFFF" points="26.583,20 38.958,14.716 35.691,20 38.958,25.283 	"/>
	<polygon fill="#FFFFFF" points="23.291,14.299 24.903,0.939 27.845,6.411 34.055,6.224 	"/>
	<polygon fill="#FFFFFF" points="16.708,14.299 5.944,6.224 12.154,6.411 15.097,0.939 	"/>
</g>
</svg>
